<?xml version="1.0" encoding="utf-8"?>
<!-- Generator: Adobe Illustrator 18.0.0, SVG Export Plug-In . SVG Version: 6.00 Build 0)  -->
<!DOCTYPE svg PUBLIC "-//W3C//DTD SVG 1.1//EN" "http://www.w3.org/Graphics/SVG/1.1/DTD/svg11.dtd">
<svg version="1.1" id="Layer_1" xmlns="http://www.w3.org/2000/svg" xmlns:xlink="http://www.w3.org/1999/xlink" x="0px" y="0px"
	 viewBox="0 0 64 64" enable-background="new 0 0 64 64" xml:space="preserve">
<g>
	<g>
		<g>
			<g>
				<g>
					<polygon points="47,0 47,10 56,10 					"/>
				</g>
			</g>
		</g>
		<g>
			<g>
				<path d="M43,14V0H10C8.9,0,8,0.9,8,2.1v59.9c0,1.1,0.9,2.1,2,2.1h43.7c1.1,0,2.3-0.9,2.3-2.1V14H43z M14,28h25v4H14V28z
					 M23.9,55h-2.7v-9.8H18V43h9.1v2.2h-3.2V55z M33.9,55L32,51.3L30.1,55h-3l3.4-6.1L27.3,43h3l1.7,3.4l1.7-3.4h3l-3.2,5.9l3.4,6.1
					H33.9z M46,45.2h-3.2V55h-2.7v-9.8h-3.2V43H46V45.2z M50,24H14v-4h36V24z"/>
			</g>
		</g>
	</g>
</g>
</svg>
