<?xml version="1.0" encoding="utf-8"?>
<!-- Generator: Adobe Illustrator 18.0.0, SVG Export Plug-In . SVG Version: 6.00 Build 0)  -->
<!DOCTYPE svg PUBLIC "-//W3C//DTD SVG 1.1//EN" "http://www.w3.org/Graphics/SVG/1.1/DTD/svg11.dtd">
<svg version="1.1" id="Layer_1" xmlns="http://www.w3.org/2000/svg" xmlns:xlink="http://www.w3.org/1999/xlink" x="0px" y="0px"
	 viewBox="0 0 64 64" enable-background="new 0 0 64 64" xml:space="preserve">
<g>
	<g>
		<g>
			<g>
				<g>
					<polygon points="47,0 47,10 56,10 					"/>
				</g>
			</g>
		</g>
		<g>
			<g>
				<path d="M43,14V0H10C8.9,0,8,0.9,8,2.1v59.9c0,1.1,0.9,2.1,2,2.1h43.7c1.1,0,2.3-0.9,2.3-2.1V14H43z M14,28h25v4H14V28z
					 M24.1,53.8l-2-3.6l-2,3.6H17l3.6-6l-3.4-5.7h3.1l1.8,3.3l1.8-3.3H27l-3.4,5.7l3.6,6H24.1z M36.6,53.8h-8.4V42.2H31v9.5h5.6
					V53.8z M45.8,53.1c-0.8,0.6-2,0.9-3.5,0.9c-1,0-1.9-0.2-2.8-0.7c-0.5-0.2-0.9-0.5-1.3-0.9c-0.4-0.4-0.7-0.8-0.9-1.4l2.4-0.9
					c0.1,0.3,0.3,0.5,0.5,0.7s0.4,0.4,0.6,0.6c0.2,0.2,0.5,0.3,0.7,0.4S42,52,42.4,52c0.2,0,0.5,0,0.7-0.1c0.2,0,0.4-0.1,0.6-0.2
					c0.2-0.1,0.3-0.2,0.4-0.4c0.1-0.2,0.2-0.4,0.2-0.7c0-0.4-0.2-0.7-0.7-1c-0.5-0.3-1.1-0.6-1.8-0.8c-1.4-0.5-2.4-0.9-3.1-1.4
					c-0.7-0.5-1.1-1.3-1.1-2.2c0-0.9,0.4-1.7,1.2-2.3c0.8-0.6,1.9-0.9,3.1-0.9c1,0,2,0.2,2.8,0.7c0.4,0.2,0.8,0.5,1.1,0.8
					c0.3,0.3,0.6,0.8,0.9,1.3l-2.6,0.7c-0.2-0.4-0.5-0.8-0.8-1.1C43.1,44.2,42.6,44,42,44c-0.2,0-0.4,0-0.6,0.1
					c-0.2,0-0.4,0.1-0.5,0.2c-0.2,0.1-0.3,0.2-0.4,0.3c-0.1,0.1-0.2,0.3-0.2,0.5c0,0.2,0.1,0.3,0.2,0.5c0.1,0.1,0.3,0.3,0.6,0.4
					c0.6,0.3,1.2,0.5,1.9,0.8c1,0.3,1.9,0.7,2.7,1.3c0.8,0.6,1.3,1.4,1.3,2.4C47,51.6,46.6,52.5,45.8,53.1z M50,24H14v-4h36V24z"/>
			</g>
		</g>
	</g>
</g>
</svg>
