<?xml version="1.0" encoding="UTF-8" standalone="no"?>
<!-- Generator: Adobe Illustrator 20.0.0, SVG Export Plug-In . SVG Version: 6.00 Build 0)  -->

<svg
   xmlns:dc="http://purl.org/dc/elements/1.1/"
   xmlns:cc="http://creativecommons.org/ns#"
   xmlns:rdf="http://www.w3.org/1999/02/22-rdf-syntax-ns#"
   xmlns:svg="http://www.w3.org/2000/svg"
   xmlns="http://www.w3.org/2000/svg"
   xmlns:sodipodi="http://sodipodi.sourceforge.net/DTD/sodipodi-0.dtd"
   xmlns:inkscape="http://www.inkscape.org/namespaces/inkscape"
   version="1.1"
   id="Capa_1"
   x="0px"
   y="0px"
   viewBox="0 0 40.2 40.2"
   xml:space="preserve"
   inkscape:version="0.48.4 r9939"
   width="100%"
   height="100%"
   sodipodi:docname="service.svg"><metadata
   id="metadata22"><rdf:RDF><cc:Work
       rdf:about=""><dc:format>image/svg+xml</dc:format><dc:type
         rdf:resource="http://purl.org/dc/dcmitype/StillImage" /></cc:Work></rdf:RDF></metadata><defs
   id="defs20">
	
	
	
	

		
	
			
		</defs><sodipodi:namedview
   pagecolor="#ffffff"
   bordercolor="#666666"
   borderopacity="1"
   objecttolerance="10"
   gridtolerance="10"
   guidetolerance="10"
   inkscape:pageopacity="0"
   inkscape:pageshadow="2"
   inkscape:window-width="640"
   inkscape:window-height="480"
   id="namedview18"
   showgrid="false"
   fit-margin-top="0"
   fit-margin-left="0"
   fit-margin-right="0"
   fit-margin-bottom="0"
   inkscape:zoom="0.28031833"
   inkscape:cx="19.350012"
   inkscape:cy="19.95"
   inkscape:window-x="0"
   inkscape:window-y="0"
   inkscape:window-maximized="0"
   inkscape:current-layer="Capa_1" />
<style
   type="text/css"
   id="style3">
	.st0{fill-rule:evenodd;clip-rule:evenodd;fill:#5264AC;}
	.st1{fill-rule:evenodd;clip-rule:evenodd;fill:#585857;}
	.st2{fill-rule:evenodd;clip-rule:evenodd;fill:#FFFFFF;}
</style>
<circle
   style="fill:#5264ac;fill-rule:evenodd"
   sodipodi:ry="19.1"
   sodipodi:rx="19.1"
   sodipodi:cy="420.79999"
   sodipodi:cx="298.39999"
   id="circle7"
   r="19.1"
   cy="420.79999"
   cx="298.39999"
   class="st0"
   transform="translate(-278.29999,-400.70001)" /><circle
   style="fill:#5264ac;fill-rule:evenodd"
   sodipodi:ry="20.1"
   sodipodi:rx="20.1"
   sodipodi:cy="420.79999"
   sodipodi:cx="298.39999"
   id="circle9"
   r="20.1"
   cy="420.79999"
   cx="298.39999"
   class="st0"
   transform="translate(-278.29999,-400.70001)" /><path
   style="fill:#585857;fill-rule:evenodd"
   inkscape:connector-curvature="0"
   id="path11"
   d="m 1.0000065,20.899992 c 0.4,10.2 8.8,18.3 19.0999995,18.3 10.3,0 18.7,-8.1 19.1,-18.3 H 1.0000065 z"
   class="st1" /><path
   style="fill:#ffffff;fill-rule:evenodd"
   inkscape:connector-curvature="0"
   id="path16"
   d="m 20.100006,0.99999175 c -10.6999995,0 -19.0999995,8.39999995 -19.0999995,19.10000025 0,10.7 8.4,19.1 19.0999995,19.1 10.7,0 19.1,-8.4 19.1,-19.1 0.1,-10.7000003 -8.3,-19.10000025 -19.1,-19.10000025 z m -4.8,2.39999995 c -1.2,1.7 -2.4,3.8 -3.2,5.9 -1.5,-0.6 -2.7999995,-1.4 -3.7999995,-2.1 1.9999995,-1.8 4.3999995,-3.2 6.9999995,-3.8 z m -8.1999995,5 c 1.2,0.8 2.7,1.6 4.3999995,2.4000003 -1.1,3 -1.7999995,6.1 -1.8999995,8.5 h -6.8 c 0.2,-4.3 1.8,-8 4.3,-10.9000003 z m -4.3,12.5000003 h 6.8 c 0.1,2.4 0.6999995,5.5 1.8999995,8.5 -1.6999995,0.7 -3.1999995,1.5 -4.3999995,2.4 -2.5,-2.9 -4.1,-6.6 -4.3,-10.9 z m 5.5,12.1 c 1.1,-0.8 2.3999995,-1.5 3.7999995,-2.1 0.8,2.1 1.9,4.2 3.2,5.9 -2.6,-0.7 -5,-2 -6.9999995,-3.8 z m 10.9999995,4.5 c -0.6,0 -1.1,-0.1 -1.7,-0.2 -1.6,-2.1 -2.9,-4.5 -3.9,-7.1 1.9,-0.7 3.9,-1.1 5.7,-1.2 v 8.5 z m 0,-10.2 c -1.9,0.1 -4.1,0.7 -6.2,1.6 -1,-2.7 -1.6,-5.4 -1.7,-8 h 8 v 6.4 z m 0,-8.1 h -8 c 0.1,-2.6 0.7,-5.3 1.7,-7.9 2.1,0.9 4.3,1.5 6.2,1.6 v 6.3 z m 0,-8.1 c -1.9,-0.1 -3.9,-0.6 -5.7,-1.2000003 1.1,-2.6 2.5,-5 4,-7 0.6,-0.1 1.2,-0.2 1.7,-0.2 v 8.4000003 z m 18.2,8.1 h -6.8 c -0.1,-2.4 -0.8,-5.5 -1.9,-8.5 1.7,-0.7000003 3.2,-1.5000003 4.4,-2.4000003 2.5,3.0000003 4.1,6.7000003 4.3,10.9000003 z m -5.5,-12.0000003 c -1,0.7 -2.3,1.5 -3.8,2.1 -0.8,-2.1 -2,-4.2 -3.2,-5.9 2.6,0.6 5,2 7,3.8 z m -11,-4.5 c 0.6,0 1.1,0.1 1.7,0.2 1.5,2.1 2.9,4.4 4,7 -1.9,0.7000003 -3.9,1.1000003 -5.7,1.2000003 V 2.6999917 z m 0,10.2000003 c 1.9,-0.1 4.1,-0.7 6.3,-1.6 1,2.7 1.6,5.3 1.7,7.9 h -8 v -6.3 z m 0,8 h 8 c -0.1,2.5 -0.7,5.2 -1.7,8 -2.1,-0.9 -4.3,-1.5 -6.3,-1.6 v -6.4 z m 0,16.6 v -8.4 c 1.8,0.1 3.8,0.5 5.7,1.2 -1,2.5 -2.4,5 -3.9,7.1 -0.7,0 -1.2,0.1 -1.8,0.1 z m 4,-0.7 c 1.3,-1.8 2.4,-3.8 3.1,-5.9 1.5,0.6 2.8,1.3 3.8,2.1 -1.9,1.8 -4.3,3.1 -6.9,3.8 z m 8.1,-5 c -1.2,-0.8 -2.7,-1.6 -4.4,-2.4 1.2,-3 1.9,-6.1 1.9,-8.5 h 6.8 c -0.1,4.3 -1.7,8 -4.3,10.9 z"
   class="st2" />
</svg>