<?xml version="1.0" encoding="UTF-8" standalone="no"?>
<!-- Generator: Adobe Illustrator 20.0.0, SVG Export Plug-In . SVG Version: 6.00 Build 0)  -->

<svg
   xmlns:dc="http://purl.org/dc/elements/1.1/"
   xmlns:cc="http://creativecommons.org/ns#"
   xmlns:rdf="http://www.w3.org/1999/02/22-rdf-syntax-ns#"
   xmlns:svg="http://www.w3.org/2000/svg"
   xmlns="http://www.w3.org/2000/svg"
   xmlns:sodipodi="http://sodipodi.sourceforge.net/DTD/sodipodi-0.dtd"
   xmlns:inkscape="http://www.inkscape.org/namespaces/inkscape"
   version="1.1"
   id="Capa_1"
   x="0px"
   y="0px"
   viewBox="0 0 33.8911 46.078332"
   xml:space="preserve"
   inkscape:version="0.48.4 r9939"
   width="100%"
   height="100%"
   sodipodi:docname="utility.svg"><metadata
   id="metadata15"><rdf:RDF><cc:Work
       rdf:about=""><dc:format>image/svg+xml</dc:format><dc:type
         rdf:resource="http://purl.org/dc/dcmitype/StillImage" /></cc:Work></rdf:RDF></metadata><defs
   id="defs13">
	
	
</defs><sodipodi:namedview
   pagecolor="#ffffff"
   bordercolor="#666666"
   borderopacity="1"
   objecttolerance="10"
   gridtolerance="10"
   guidetolerance="10"
   inkscape:pageopacity="0"
   inkscape:pageshadow="2"
   inkscape:window-width="640"
   inkscape:window-height="480"
   id="namedview11"
   showgrid="false"
   fit-margin-top="0"
   fit-margin-left="0"
   fit-margin-right="0"
   fit-margin-bottom="0"
   inkscape:zoom="0.28031833"
   inkscape:cx="16.262774"
   inkscape:cy="22.528345"
   inkscape:window-x="0"
   inkscape:window-y="0"
   inkscape:window-maximized="0"
   inkscape:current-layer="Capa_1" />
<style
   type="text/css"
   id="style3">
	.st0{fill:#5264AC;}
	.st1{fill:#585857;}
</style>
<path
   style="fill:#5264ac"
   inkscape:connector-curvature="0"
   id="path7"
   d="m 11.412768,-2.0838898e-5 4.3,7.500000038898 c 1.1,1.9 0.4,4.2999998 -1.5,5.2999998 l -3.4,1.9 c -1.9,1.1 -4.3,0.4 -5.3,-1.5 l -4.3,-7.4999998 c -1.59999996,3.1 -1.69999996,6.9999998 0.2,10.2999998 2.9,5.2 9.5,7 14.7,4.1 5.2,-2.9 7,-9.5 4.1,-14.6999998 -1.9,-3.2 -5.3,-5.20000004 -8.8,-5.400000038898 z"
   class="st0" /><path
   style="fill:#585857"
   inkscape:connector-curvature="0"
   id="path9"
   d="m 18.712768,19.799979 -4.3,2.4 c -1.9,1.1 -2.6,3.5 -1.5,5.3 l 9.4,16.6 c 1.1,1.9 3.5,2.5 5.3,1.5 l 4.3,-2.4 c 1.9,-1.1 2.5,-3.5 1.5,-5.3 l -9.4,-16.6 c -1,-1.9 -3.4,-2.6 -5.3,-1.5 z m 8.8,20.5 c -1,0.6 -2.3,0.2 -2.9,-0.8 -0.6,-1 -0.2,-2.4 0.8,-2.9 1,-0.6 2.4,-0.2 2.9,0.8 0.6,1 0.3,2.3 -0.8,2.9 z"
   class="st1" />
</svg>