<?xml version="1.0" encoding="UTF-8" standalone="no"?>
<!-- Generator: Adobe Illustrator 20.0.0, SVG Export Plug-In . SVG Version: 6.00 Build 0)  -->

<svg
   xmlns:dc="http://purl.org/dc/elements/1.1/"
   xmlns:cc="http://creativecommons.org/ns#"
   xmlns:rdf="http://www.w3.org/1999/02/22-rdf-syntax-ns#"
   xmlns:svg="http://www.w3.org/2000/svg"
   xmlns="http://www.w3.org/2000/svg"
   xmlns:sodipodi="http://sodipodi.sourceforge.net/DTD/sodipodi-0.dtd"
   xmlns:inkscape="http://www.inkscape.org/namespaces/inkscape"
   version="1.1"
   id="Capa_1"
   x="0px"
   y="0px"
   viewBox="0 0 46.327999 47.627999"
   xml:space="preserve"
   inkscape:version="0.48.4 r9939"
   width="100%"
   height="100%"
   sodipodi:docname="widget.svg"><metadata
   id="metadata15"><rdf:RDF><cc:Work
       rdf:about=""><dc:format>image/svg+xml</dc:format><dc:type
         rdf:resource="http://purl.org/dc/dcmitype/StillImage" /></cc:Work></rdf:RDF></metadata><defs
   id="defs13">
	
	
</defs><sodipodi:namedview
   pagecolor="#ffffff"
   bordercolor="#666666"
   borderopacity="1"
   objecttolerance="10"
   gridtolerance="10"
   guidetolerance="10"
   inkscape:pageopacity="0"
   inkscape:pageshadow="2"
   inkscape:window-width="640"
   inkscape:window-height="480"
   id="namedview11"
   showgrid="false"
   fit-margin-top="0"
   fit-margin-left="0"
   fit-margin-right="0"
   fit-margin-bottom="0"
   inkscape:zoom="0.28031833"
   inkscape:cx="22.350006"
   inkscape:cy="24.350012"
   inkscape:window-x="0"
   inkscape:window-y="0"
   inkscape:window-maximized="0"
   inkscape:current-layer="Capa_1" />
<style
   type="text/css"
   id="style3">
	.st0{fill:#585857;}
	.st1{fill:#5264AC;}
</style>
<path
   style="fill:#585857"
   inkscape:connector-curvature="0"
   id="path7"
   d="m 25.4,23.427979 c -0.8,-1 -1.7,-1.8 -2.8,-2.5 l 0.6,-4.7 c 0,0 -0.5,-0.5 -1.7,-0.9 -1.1,-0.4 -1.8,-0.4 -1.8,-0.4 l -2.5,4.1 c -1.2,-0.1 -2.4,-0.1 -3.6,0.2 l -2.9,-3.9 c 0,0 -0.7,0 -1.8,0.6 -1.1,0.5 -1.6,1 -1.6,1 l 1.1,4.9 c -0.9,0.8 -1.7,1.6 -2.3,2.6 l -4.8,-0.7 c 0,0 -0.5,0.5 -0.9,1.7 -0.4,1.2 -0.4,1.9 -0.4,1.9 l 4.2,2.8 c -0.1,1.1 0,2.3 0.2,3.4 l -3.9,3 c 0,0 0,0.7 0.6,1.9 0.5,1.1 1,1.6 1,1.6 l 4.9,-1 c 0.7,0.9 1.6,1.7 2.5,2.3 l -0.6,5 c 0,0 0.5,0.5 1.7,0.9 1.2,0.4 1.9,0.4 1.9,0.4 l 2.6,-4.2 c 1.1,0.1 2.3,0.1 3.4,-0.1 l 3,4 c 0,0 0.7,0 1.8,-0.5 1.1,-0.5 1.6,-1 1.6,-1 l -1.1,-4.9 c 0.9,-0.8 1.7,-1.7 2.4,-2.6 l 4.7,0.7 c 0,0 0.5,-0.5 0.9,-1.7 0.4,-1.2 0.4,-1.9 0.4,-1.9 l -4,-2.7 c 0.1,-1.2 0,-2.5 -0.2,-3.7 l 3.7,-2.9 c 0,0 0,-0.7 -0.6,-1.9 -0.5,-1.1 -1,-1.6 -1,-1.6 l -4.7,0.8 z m -4.6,5.5 c 1.2,2.6 0.1,5.7 -2.4,6.9 -2.5,1.2 -5.6,0 -6.8,-2.6 -1.2,-2.6 -0.1,-5.7 2.4,-6.9 2.5,-1.2 5.6,0 6.8,2.6 z"
   class="st0" /><path
   style="fill:#5264ac"
   inkscape:connector-curvature="0"
   id="path9"
   d="m 42,16.327979 c 0.4,-0.8 0.7,-1.7 0.9,-2.5 l 3.3,-0.9 c 0,0 0.2,-0.5 0.1,-1.4 0,-0.9 -0.2,-1.4 -0.2,-1.4 L 42.7,9.5279792 c -0.3,-0.8 -0.6,-1.6 -1.1,-2.3 l 1.7,-3 c 0,0 -0.2,-0.5 -0.9,-1.1 -0.6,-0.6 -1.1,-0.8 -1.1,-0.8 l -2.9,2 c -0.8,-0.4 -1.6,-0.7 -2.4,-0.8 L 35.1,0.12797916 c 0,0 -0.5,-0.2 -1.4,-0.1 -0.9,0 -1.3,0.2 -1.3,0.2 L 31.8,3.8279792 c -0.8,0.2 -1.5,0.6 -2.2,1.1 l -3.1,-1.8 c 0,0 -0.5,0.2 -1.1,0.9 -0.6,0.7 -0.8,1.1 -0.8,1.1 l 2.1,3 c -0.4,0.7 -0.7,1.5 -0.8,2.2999998 l -3.5,0.9 c 0,0 -0.2,0.5 -0.1,1.4 0,0.9 0.2,1.4 0.2,1.4 l 3.5,0.7 c 0.2,0.8 0.6,1.6 1.1,2.3 l -1.8,3.1 c 0,0 0.2,0.5 0.9,1.1 0.6,0.6 1.1,0.8 1.1,0.8 l 2.9,-2 c 0.8,0.4 1.6,0.7 2.4,0.9 l 0.9,3.4 c 0,0 0.5,0.2 1.4,0.1 0.9,0 1.4,-0.2 1.4,-0.2 l 0.6,-3.4 c 0.8,-0.2 1.6,-0.6 2.4,-1.1 l 3,1.7 c 0,0 0.5,-0.2 1.1,-0.9 0.6,-0.6 0.8,-1.1 0.8,-1.1 l -2.2,-3.2 z m -5,-1.6 c -1.4,1.5 -3.8,1.6 -5.3,0.2 -1.5,-1.4 -1.6,-3.8 -0.2,-5.2999998 1.4,-1.5 3.7,-1.6 5.3,-0.2 1.5,1.3999998 1.6,3.7999998 0.2,5.2999998 z"
   class="st1" />
</svg>