<?xml version="1.0" encoding="UTF-8" standalone="no"?>
<!-- Generator: Adobe Illustrator 20.0.0, SVG Export Plug-In . SVG Version: 6.00 Build 0)  -->

<svg
   xmlns:dc="http://purl.org/dc/elements/1.1/"
   xmlns:cc="http://creativecommons.org/ns#"
   xmlns:rdf="http://www.w3.org/1999/02/22-rdf-syntax-ns#"
   xmlns:svg="http://www.w3.org/2000/svg"
   xmlns="http://www.w3.org/2000/svg"
   xmlns:sodipodi="http://sodipodi.sourceforge.net/DTD/sodipodi-0.dtd"
   xmlns:inkscape="http://www.inkscape.org/namespaces/inkscape"
   version="1.1"
   id="Capa_1"
   x="0px"
   y="0px"
   viewBox="0 0 32.900011 38.999999"
   xml:space="preserve"
   inkscape:version="0.48.4 r9939"
   width="100%"
   height="100%"
   sodipodi:docname="datastore.svg"><metadata
   id="metadata19"><rdf:RDF><cc:Work
       rdf:about=""><dc:format>image/svg+xml</dc:format><dc:type
         rdf:resource="http://purl.org/dc/dcmitype/StillImage" /></cc:Work></rdf:RDF></metadata><defs
   id="defs17">
	
	
	
	
</defs><sodipodi:namedview
   pagecolor="#ffffff"
   bordercolor="#666666"
   borderopacity="1"
   objecttolerance="10"
   gridtolerance="10"
   guidetolerance="10"
   inkscape:pageopacity="0"
   inkscape:pageshadow="2"
   inkscape:window-width="1920"
   inkscape:window-height="1138"
   id="namedview15"
   showgrid="false"
   fit-margin-top="0"
   fit-margin-left="0"
   fit-margin-right="0"
   fit-margin-bottom="0"
   inkscape:zoom="0.79285996"
   inkscape:cx="181.37706"
   inkscape:cy="-101.16709"
   inkscape:window-x="-8"
   inkscape:window-y="-8"
   inkscape:window-maximized="1"
   inkscape:current-layer="Capa_1" />
<style
   type="text/css"
   id="style3">
	.st0{fill:#585857;}
	.st1{fill:#5264AC;}
</style>
<path
   style="fill:#585857"
   inkscape:connector-curvature="0"
   id="path7"
   d="m 28.4,26.399979 c -3.2,0.8 -7.4,1.2 -11.9,1.2 -4.5,0 -8.7,-0.4 -11.9,-1.2 -2.1,-0.5 -3.6,-1.2 -4.6,-1.9 v 10.4 c 0,2.2 7.4,4.1 16.4,4.1 9,0 16.4,-1.8 16.4,-4.1 v -10.4 c -0.8,0.8 -2.3,1.4 -4.4,1.9 z"
   class="st0" /><ellipse
   style="fill:#5264ac"
   sodipodi:ry="4.0999999"
   sodipodi:rx="16.4"
   sodipodi:cy="405.5"
   sodipodi:cx="297.70001"
   id="ellipse9"
   ry="4.0999999"
   rx="16.4"
   cy="405.5"
   cx="297.70001"
   class="st1"
   transform="translate(-281.2,-401.40002)" /><path
   style="fill:#5264ac"
   inkscape:connector-curvature="0"
   id="path11"
   d="m 28.4,8.1999791 c -3.2,0.8 -7.4,1.2 -11.9,1.2 -4.5,0 -8.7,-0.4 -11.9,-1.2 -2.1,-0.5 -3.6,-1.2 -4.6,-1.9 V 16.599979 c 0,2.2 7.4,4.1 16.4,4.1 9,0 16.4,-1.8 16.4,-4.1 V 6.1999791 c -0.8,0.8 -2.3,1.5 -4.4,2 z"
   class="st1" /><path
   style="fill:#585857"
   inkscape:connector-curvature="0"
   id="path13"
   d="m 30.4,20.199979 c -4.8,1.7 -12.7,1.8 -13.9,1.8 -1.2,0 -9.1,-0.1 -13.9,-1.8 -1.6,0.6 -2.5,1.4 -2.5,2.2 0,2.3 7.4,4.1 16.4,4.1 9,0 16.4,-1.8 16.4,-4.1 0,-0.9 -0.9,-1.6 -2.5,-2.2 z"
   class="st0" />
</svg>