<?xml version="1.0" encoding="UTF-8" standalone="no"?>
<!-- Generator: Adobe Illustrator 20.0.0, SVG Export Plug-In . SVG Version: 6.00 Build 0)  -->

<svg
   xmlns:dc="http://purl.org/dc/elements/1.1/"
   xmlns:cc="http://creativecommons.org/ns#"
   xmlns:rdf="http://www.w3.org/1999/02/22-rdf-syntax-ns#"
   xmlns:svg="http://www.w3.org/2000/svg"
   xmlns="http://www.w3.org/2000/svg"
   xmlns:sodipodi="http://sodipodi.sourceforge.net/DTD/sodipodi-0.dtd"
   xmlns:inkscape="http://www.inkscape.org/namespaces/inkscape"
   version="1.1"
   id="Capa_1"
   x="0px"
   y="0px"
   viewBox="0 0 45.699999 41.099999"
   xml:space="preserve"
   inkscape:version="0.48.4 r9939"
   width="100%"
   height="100%"
   sodipodi:docname="data.svg"><metadata
   id="metadata31"><rdf:RDF><cc:Work
       rdf:about=""><dc:format>image/svg+xml</dc:format><dc:type
         rdf:resource="http://purl.org/dc/dcmitype/StillImage" /></cc:Work></rdf:RDF></metadata><defs
   id="defs29">
	
	
	
	
	
	

		
		
		
		
	</defs><sodipodi:namedview
   pagecolor="#ffffff"
   bordercolor="#666666"
   borderopacity="1"
   objecttolerance="10"
   gridtolerance="10"
   guidetolerance="10"
   inkscape:pageopacity="0"
   inkscape:pageshadow="2"
   inkscape:window-width="640"
   inkscape:window-height="480"
   id="namedview27"
   showgrid="false"
   fit-margin-top="0"
   fit-margin-left="0"
   fit-margin-right="0"
   fit-margin-bottom="0"
   inkscape:zoom="0.28031833"
   inkscape:cx="22.850006"
   inkscape:cy="20.350012"
   inkscape:window-x="0"
   inkscape:window-y="0"
   inkscape:window-maximized="0"
   inkscape:current-layer="Capa_1" />
<style
   type="text/css"
   id="style3">
	.st0{fill:#585857;}
	.st1{fill:#5264AC;}
</style>
<path
   style="fill:#585857"
   inkscape:connector-curvature="0"
   id="path7"
   d="m 18.6,32.899979 c -2.1,0.5 -4.8,0.8 -7.8,0.8 -3,0 -5.7,-0.3 -7.8,-0.8 -1.4,-0.3 -2.4,-0.8 -3,-1.3 v 6.8 c 0,1.5 4.8,2.7 10.8,2.7 5.9,0 10.8,-1.2 10.8,-2.7 v -6.8 c -0.6,0.5 -1.6,1 -3,1.3 z"
   class="st0" /><path
   style="fill:#585857"
   inkscape:connector-curvature="0"
   id="path9"
   d="m 18.6,20.999979 c -2.1,0.5 -4.8,0.8 -7.8,0.8 -3,0 -5.7,-0.3 -7.8,-0.8 -1.4,-0.3 -2.4,-0.8 -3,-1.3 v 6.8 c 0,1.5 4.8,2.7 10.8,2.7 5.9,0 10.8,-1.2 10.8,-2.7 v -6.8 c -0.6,0.5 -1.6,0.9 -3,1.3 z"
   class="st0" /><path
   style="fill:#585857"
   inkscape:connector-curvature="0"
   id="path11"
   d="m 20,28.799979 c -3.1,1.1 -8.3,1.2 -9.1,1.2 -0.8,0 -6,0 -9.1,-1.2 -1,0.4 -1.6,0.9 -1.6,1.4 0,1.5 4.8,2.7 10.8,2.7 5.9,0 10.8,-1.2 10.8,-2.7 -0.2,-0.5 -0.8,-1 -1.8,-1.4 z"
   class="st0" /><path
   class="st1"
   d="m 42.5,32.899979 c -2.1,0.5 -4.8,0.8 -7.8,0.8 -3,0 -5.7,-0.3 -7.8,-0.8 -1.4,-0.3 -2.4,-0.8 -3,-1.3 v 6.8 c 0,1.5 4.8,2.7 10.8,2.7 5.9,0 10.8,-1.2 10.8,-2.7 v -6.8 c -0.6,0.5 -1.6,1 -3,1.3 z"
   id="path15"
   inkscape:connector-curvature="0"
   style="fill:#5264ac" /><ellipse
   class="st1"
   cx="309.60001"
   cy="418.5"
   rx="10.8"
   ry="2.7"
   id="ellipse17"
   sodipodi:cx="309.60001"
   sodipodi:cy="418.5"
   sodipodi:rx="10.8"
   sodipodi:ry="2.7"
   style="fill:#5264ac"
   transform="translate(-274.8,-400.20002)" /><path
   class="st1"
   d="m 42.5,20.999979 c -2.1,0.5 -4.8,0.8 -7.8,0.8 -3,0 -5.7,-0.3 -7.8,-0.8 -1.4,-0.3 -2.4,-0.8 -3,-1.3 v 6.8 c 0,1.5 4.8,2.7 10.8,2.7 5.9,0 10.8,-1.2 10.8,-2.7 v -6.8 c -0.6,0.5 -1.6,0.9 -3,1.3 z"
   id="path19"
   inkscape:connector-curvature="0"
   style="fill:#5264ac" /><path
   class="st1"
   d="m 43.9,28.799979 c -3.1,1.1 -8.3,1.2 -9.1,1.2 -0.8,0 -6,0 -9.1,-1.2 -1,0.4 -1.6,0.9 -1.6,1.4 0,1.5 4.8,2.7 10.8,2.7 5.9,0 10.8,-1.2 10.8,-2.7 -0.2,-0.5 -0.8,-1 -1.8,-1.4 z"
   id="path21"
   inkscape:connector-curvature="0"
   style="fill:#5264ac" /><path
   style="fill:#585857"
   inkscape:connector-curvature="0"
   id="path23"
   d="m 19.3,16.599979 -3,2 v -2.7 c -1.6,-0.2 -3.5,-0.4 -5.5,-0.4 -5.9,0 -10.8,1.2 -10.8,2.7 0,1.5 4.8,2.7 10.8,2.7 6,0 10.8,-1.2 10.8,-2.7 0,-0.6 -0.9,-1.1 -2.3,-1.6 z"
   class="st0" /><polygon
   style="fill:#5264ac"
   id="polygon25"
   points="292.1,404.7 283.9,404.7 283.9,411.2 292.1,411.2 292.1,415.8 303.6,408 292.1,400.2 "
   class="st1"
   transform="translate(-274.8,-400.20002)" />
</svg>