<?xml version="1.0" encoding="UTF-8" standalone="no"?>
<!-- Generator: Adobe Illustrator 20.0.0, SVG Export Plug-In . SVG Version: 6.00 Build 0)  -->

<svg
   xmlns:dc="http://purl.org/dc/elements/1.1/"
   xmlns:cc="http://creativecommons.org/ns#"
   xmlns:rdf="http://www.w3.org/1999/02/22-rdf-syntax-ns#"
   xmlns:svg="http://www.w3.org/2000/svg"
   xmlns="http://www.w3.org/2000/svg"
   xmlns:sodipodi="http://sodipodi.sourceforge.net/DTD/sodipodi-0.dtd"
   xmlns:inkscape="http://www.inkscape.org/namespaces/inkscape"
   version="1.1"
   id="Capa_1"
   x="0px"
   y="0px"
   viewBox="0 0 40.693199 39.089025"
   xml:space="preserve"
   inkscape:version="0.48.4 r9939"
   width="100%"
   height="100%"
   sodipodi:docname="star.svg"><metadata
   id="metadata15"><rdf:RDF><cc:Work
       rdf:about=""><dc:format>image/svg+xml</dc:format><dc:type
         rdf:resource="http://purl.org/dc/dcmitype/StillImage" /></cc:Work></rdf:RDF></metadata><defs
   id="defs13">
	
	
</defs><sodipodi:namedview
   pagecolor="#ffffff"
   bordercolor="#666666"
   borderopacity="1"
   objecttolerance="10"
   gridtolerance="10"
   guidetolerance="10"
   inkscape:pageopacity="0"
   inkscape:pageshadow="2"
   inkscape:window-width="640"
   inkscape:window-height="480"
   id="namedview11"
   showgrid="false"
   fit-margin-top="0"
   fit-margin-left="0"
   fit-margin-right="0"
   fit-margin-bottom="0"
   inkscape:zoom="0.28031833"
   inkscape:cx="19.696606"
   inkscape:cy="19.139038"
   inkscape:window-x="0"
   inkscape:window-y="0"
   inkscape:window-maximized="0"
   inkscape:current-layer="Capa_1" />
<style
   type="text/css"
   id="style3">
	.st0{fill:#5264AC;}
	.st1{fill:#585857;}
</style>
<path
   style="fill:#5264ac"
   inkscape:connector-curvature="0"
   id="path7"
   d="m 20.3466,-2.0838898e-5 c 0.7,0 1.4,0.599999998898 2,1.700000038898 l 3,6.1 c 1.1,2.2 4,4.2999998 6.4,4.6999998 l 6.7,1 c 2.4,0.4 3,2.1 1.2,3.8 l -4.9,4.8 c -0.3,0.3 -0.6,0.7 -0.8,1.1 -0.6,0 -1.1,0.1 -1.7,0.1 -8.6,0 -16,-5.2 -19.2,-12.7 1,-0.7999998 1.8,-1.6999998 2.2,-2.6999998 l 3,-6.1 c 0.7,-1.20000004 1.4,-1.800000038898 2.1,-1.800000038898"
   class="st0" /><path
   style="fill:#585857"
   inkscape:connector-curvature="0"
   id="path9"
   d="m 32.4466,29.499979 c -0.3,-1.6 0.1,-3.7 1,-5.5 -0.4,0 -0.8,0 -1.1,0 -8.7,0 -16.5,-5.1 -20,-13 -1.1,0.7 -2.3,1.3 -3.4000001,1.4 l -6.7,1 c -2.4,0.4 -3,2.1 -1.2,3.8 l 4.9,4.8 c 1.8,1.7 2.9,5.1 2.5,7.6 l -1.1,6.7 c -0.4,2.4 1,3.5 3.2000001,2.3 l 6,-3.2 c 2.2,-1.2 5.8,-1.2 8,0 l 6,3.2 c 2.2,1.1 3.6,0.1 3.2,-2.3 l -1.3,-6.8 z"
   class="st1" />
</svg>