<?xml version="1.0" encoding="UTF-8" standalone="no"?>
<!-- Generator: Adobe Illustrator 20.0.0, SVG Export Plug-In . SVG Version: 6.00 Build 0)  -->

<svg
   xmlns:dc="http://purl.org/dc/elements/1.1/"
   xmlns:cc="http://creativecommons.org/ns#"
   xmlns:rdf="http://www.w3.org/1999/02/22-rdf-syntax-ns#"
   xmlns:svg="http://www.w3.org/2000/svg"
   xmlns="http://www.w3.org/2000/svg"
   xmlns:sodipodi="http://sodipodi.sourceforge.net/DTD/sodipodi-0.dtd"
   xmlns:inkscape="http://www.inkscape.org/namespaces/inkscape"
   version="1.1"
   id="Capa_1"
   x="0px"
   y="0px"
   viewBox="0 0 33.118749 48.825482"
   xml:space="preserve"
   inkscape:version="0.48.4 r9939"
   width="100%"
   height="100%"
   sodipodi:docname="cataloge.svg"><metadata
   id="metadata29"><rdf:RDF><cc:Work
       rdf:about=""><dc:format>image/svg+xml</dc:format><dc:type
         rdf:resource="http://purl.org/dc/dcmitype/StillImage" /></cc:Work></rdf:RDF></metadata><defs
   id="defs27">
	
	
	
	
	
	
	
	
	
</defs><sodipodi:namedview
   pagecolor="#ffffff"
   bordercolor="#666666"
   borderopacity="1"
   objecttolerance="10"
   gridtolerance="10"
   guidetolerance="10"
   inkscape:pageopacity="0"
   inkscape:pageshadow="2"
   inkscape:window-width="640"
   inkscape:window-height="480"
   id="namedview25"
   showgrid="false"
   inkscape:zoom="0.28031833"
   inkscape:cx="15.668756"
   inkscape:cy="24.450012"
   inkscape:window-x="0"
   inkscape:window-y="0"
   inkscape:window-maximized="0"
   inkscape:current-layer="Capa_1"
   fit-margin-top="0"
   fit-margin-left="0"
   fit-margin-right="0"
   fit-margin-bottom="0" />
<style
   type="text/css"
   id="style3">
	.st0{fill:#585857;}
	.st1{fill:#5264AC;}
	.st2{fill:#FFFFFF;}
</style>
<path
   style="fill:#585857"
   inkscape:connector-curvature="0"
   id="path7"
   d="m 21.21875,14.925463 c 0.2,0 0.3,0 0.5,0 l -0.2,0 c -0.1,0 -0.2,0 -0.3,0 z"
   class="st0" /><path
   style="fill:#585857"
   inkscape:connector-curvature="0"
   id="path9"
   d="m 17.01875,43.225463 0.2,0 c -0.1,0 -0.2,0 -0.3,-0.1 0,0.1 0.1,0.1 0.1,0.1 z"
   class="st0" /><path
   style="fill:#585857"
   inkscape:connector-curvature="0"
   id="path11"
   d="m 32.81875,7.1254626 c -0.2,-0.1 -0.4,-0.2 -0.6,-0.1 0,0 -21.1,5.1000004 -23,5.6000004 -2.7,0.7 -2.4,0.5 -2.8,0 -0.4,-0.4 -5,-5.0000004 -5,-5.0000004 0,-0.1 0,-0.1 -0.1,-0.2 0,0 0,0 0,0 0,-0.2 0.1,-0.5 0.2,-0.6 l 22.9,-5.5 c 0.3,-0.1 0.6,-0.40000004 0.5,-0.80000004 -0.1,-0.4 -0.5,-0.6 -0.8,-0.5 l -23,5.60000004 c -0.1,0 -0.1,0 -0.2,0.1 -0.7,0.4 -1,1.2 -0.9,1.9 l 0,34.4000004 c 0,0.3 0.1,0.8 0.3,1.1 0,0 0,0.1 0.1,0.1 l 5.2,5.2 c 0.1,0.1 0.2,0.1 0.3,0.2 0.5,0.2 1.2,0.2 1.9,0.2 0.7,0 1.3,-0.1 1.8,-0.2 l 23,-5.6 c 0.3,-0.1 0.5,-0.3 0.5,-0.6 V 7.7254626 c -0.1,-0.3 -0.2,-0.5 -0.3,-0.6 z"
   class="st0" /><path
   style="fill:#585857"
   inkscape:connector-curvature="0"
   id="path13"
   d="m 22.71875,29.925463 c 0,-0.6 -0.2,-1.2 -0.6,-1.5 -0.1,-0.1 -0.2,-0.2 -0.3,-0.3 -1.2,-0.7 -3.5,-2 -5,-2.8 l -0.8,1.4 c -0.7,1.2 -0.5,2.7 0.5,3.3 1.2,0.7 3.5,2 5,2.8 l 0.8,-1.4 c 0.3,-0.5 0.4,-1 0.4,-1.5 0,0 0,0 0,0 z"
   class="st0" /><path
   style="fill:#5264ac"
   inkscape:connector-curvature="0"
   id="path15"
   d="m 29.51875,6.2254626 0,0 -4.4,-4 0,0 c -0.1,-0.1 -0.2,-0.1 -0.3,-0.1 l -21.8,5.1 c -0.2,0 -0.3,0.2 -0.2,0.4 0,0 0,0.1 0.1,0.1 l 0,0 4,4.1000004 0,0 c 0.1,0.1 0.1,0.1 0.2,0.1 0,0 0,0 0.1,0 l 22.3,-5.2000004 c 0.2,0 0.3,-0.2 0.2,-0.4 -0.1,-0.1 -0.2,-0.1 -0.2,-0.1 z"
   class="st1" /><path
   style="fill:#ffffff"
   inkscape:connector-curvature="0"
   id="path17"
   d="m 25.41875,29.925463 c -1.7,0.7 -3.9,1.3 -6.3,1.6 -2.4,0.4 -4.6,0.5 -6.3,0.4 -1.1,-0.1 -1.9,-0.3 -2.4,-0.6 l 0,5.2 c 0,1.1 3.9,1.4 8.7,0.6 4.8,-0.8 8.7,-2.3 8.7,-3.5 l 0,-5.2 c -0.5,0.6 -1.3,1.1 -2.4,1.5 z"
   class="st2" /><path
   style="fill:#ffffff"
   inkscape:connector-curvature="0"
   id="path19"
   d="m 27.81875,18.225463 c 0,1.1 -3.9,2.7 -8.7,3.5 -4.8,0.8 -8.7,0.5 -8.7,-0.6 0,-1.1 3.9,-2.7 8.7,-3.5 4.8,-0.8 8.7,-0.5 8.7,0.6 z"
   class="st2" /><path
   style="fill:#ffffff"
   inkscape:connector-curvature="0"
   id="path21"
   d="m 25.41875,20.725463 c -1.7,0.7 -3.9,1.3 -6.3,1.6 -2.4,0.4 -4.6,0.5 -6.3,0.4 -1.1,-0.1 -1.9,-0.3 -2.4,-0.6 l 0,5.2 c 0,1.1 3.9,1.4 8.7,0.6 4.8,-0.8 8.7,-2.3 8.7,-3.5 l 0,-5.2 c -0.5,0.6 -1.3,1 -2.4,1.5 z"
   class="st2" /><path
   style="fill:#ffffff"
   inkscape:connector-curvature="0"
   id="path23"
   d="m 26.51875,26.625463 c -2.5,1.3 -6.7,2 -7.4,2.1 -0.7,0.1 -4.8,0.7 -7.4,0.3 -0.8,0.5 -1.3,0.9 -1.3,1.3 0,1.1 3.9,1.4 8.7,0.6 4.8,-0.8 8.7,-2.3 8.7,-3.5 0,-0.4 -0.5,-0.7 -1.3,-0.8 z"
   class="st2" />
</svg>