<?xml version="1.0" encoding="UTF-8" standalone="no"?>
<!-- Generator: Adobe Illustrator 20.0.0, SVG Export Plug-In . SVG Version: 6.00 Build 0)  -->

<svg
   xmlns:dc="http://purl.org/dc/elements/1.1/"
   xmlns:cc="http://creativecommons.org/ns#"
   xmlns:rdf="http://www.w3.org/1999/02/22-rdf-syntax-ns#"
   xmlns:svg="http://www.w3.org/2000/svg"
   xmlns="http://www.w3.org/2000/svg"
   xmlns:sodipodi="http://sodipodi.sourceforge.net/DTD/sodipodi-0.dtd"
   xmlns:inkscape="http://www.inkscape.org/namespaces/inkscape"
   version="1.1"
   id="Capa_1"
   x="0px"
   y="0px"
   viewBox="0 0 39.999999 44.899999"
   xml:space="preserve"
   inkscape:version="0.48.4 r9939"
   width="100%"
   height="100%"
   sodipodi:docname="query.svg"><metadata
   id="metadata23"><rdf:RDF><cc:Work
       rdf:about=""><dc:format>image/svg+xml</dc:format><dc:type
         rdf:resource="http://purl.org/dc/dcmitype/StillImage" /></cc:Work></rdf:RDF></metadata><defs
   id="defs21">
	
	

		
		
		
		
	</defs><sodipodi:namedview
   pagecolor="#ffffff"
   bordercolor="#666666"
   borderopacity="1"
   objecttolerance="10"
   gridtolerance="10"
   guidetolerance="10"
   inkscape:pageopacity="0"
   inkscape:pageshadow="2"
   inkscape:window-width="640"
   inkscape:window-height="480"
   id="namedview19"
   showgrid="false"
   fit-margin-top="0"
   fit-margin-left="0"
   fit-margin-right="0"
   fit-margin-bottom="0"
   inkscape:zoom="0.28031833"
   inkscape:cx="20.050006"
   inkscape:cy="22.350012"
   inkscape:window-x="0"
   inkscape:window-y="0"
   inkscape:window-maximized="0"
   inkscape:current-layer="Capa_1" />
<style
   type="text/css"
   id="style3">
	.st0{fill:#585857;}
	.st1{fill:#5264AC;}
</style>
<path
   class="st0"
   d="m 18.6,36.699979 c -2.1,0.5 -4.8,0.8 -7.8,0.8 -3,0 -5.7,-0.3 -7.8,-0.8 -1.4,-0.3 -2.4,-0.8 -3,-1.3 v 6.8 c 0,1.5 4.8,2.7 10.8,2.7 5.9,0 10.8,-1.2 10.8,-2.7 v -6.8 c -0.6,0.6 -1.6,1 -3,1.3 z"
   id="path9"
   inkscape:connector-curvature="0"
   style="fill:#585857" /><ellipse
   class="st0"
   cx="288.5"
   cy="420.5"
   rx="10.8"
   ry="2.7"
   id="ellipse11"
   sodipodi:cx="288.5"
   sodipodi:cy="420.5"
   sodipodi:rx="10.8"
   sodipodi:ry="2.7"
   style="fill:#585857"
   transform="translate(-277.6,-398.40002)" /><path
   class="st0"
   d="m 18.6,24.799979 c -2.1,0.5 -4.8,0.8 -7.8,0.8 -3,0 -5.7,-0.3 -7.8,-0.8 -1.4,-0.3 -2.4,-0.8 -3,-1.3 v 6.8 c 0,1.5 4.8,2.7 10.8,2.7 5.9,0 10.8,-1.2 10.8,-2.7 v -6.8 c -0.6,0.5 -1.6,1 -3,1.3 z"
   id="path13"
   inkscape:connector-curvature="0"
   style="fill:#585857" /><path
   class="st0"
   d="m 20,32.599979 c -3.1,1.1 -8.3,1.2 -9.1,1.2 -0.8,0 -6,0 -9.1,-1.2 -1,0.4 -1.6,0.9 -1.6,1.4 0,1.5 4.8,2.7 10.8,2.7 5.9,0 10.8,-1.2 10.8,-2.7 -0.2,-0.5 -0.8,-1 -1.8,-1.4 z"
   id="path15"
   inkscape:connector-curvature="0"
   style="fill:#585857" /><path
   style="fill:#5264ac"
   inkscape:connector-curvature="0"
   id="path17"
   d="m 28.6,-2.0838898e-5 c 2.3,0 4.3,0.399999998898 6,1.300000038898 1.7,0.8 3.1,2 4,3.4 1,1.4 1.4,3 1.4,4.7 0,1.2999998 -0.3,2.4999998 -0.8,3.4999998 -0.5,1 -1.2,1.9 -1.9,2.6 -0.7,0.7 -2.1,2 -4,3.7 -0.5,0.5 -1,0.9 -1.3,1.3 -0.3,0.4 -0.6,0.7 -0.7,1 -0.2,0.3 -0.3,0.6 -0.4,0.9 -0.1,0.3 -0.2,0.8 -0.4,1.6 -0.3,1.6 -1.2,2.5 -2.8,2.5 -0.8,0 -1.5,-0.3 -2.1,-0.8 -0.6,-0.5 -0.8,-1.3 -0.8,-2.4 0,-1.3 0.2,-2.5 0.6,-3.4 0.4,-1 1,-1.8 1.6,-2.5 0.7,-0.7 1.6,-1.6 2.7,-2.6 1,-0.9 1.7,-1.5 2.2,-2 0.4,-0.4 0.8,-0.9 1.1,-1.5 0.3,-0.5 0.5,-1.1 0.5,-1.7999998 0,-1.3 -0.5,-2.3 -1.4,-3.2 -0.9,-0.9 -2.1,-1.3 -3.6,-1.3 -1.7,0 -3,0.4 -3.8,1.3 -0.8,0.9 -1.5,2.2 -2.1,3.8999998 -0.5,1.8 -1.5,2.7 -3,2.7 -0.9,0 -1.6,-0.3 -2.2,-0.9 -0.6,-0.6 -0.9,-1.3 -0.9,-1.9999998 0,-1.5 0.5,-3 1.4,-4.5 1,-1.5 2.4,-2.8 4.2,-3.8 C 24,0.49997916 26.2,-2.0838898e-5 28.6,-2.0838898e-5 M 28.1,28.699979 c -1,0 -1.9,0.3 -2.5,1 -0.7,0.7 -1,1.5 -1,2.5 0,1.1 0.4,2 1.1,2.6 0.7,0.6 1.6,0.9 2.5,0.9 0.9,0 1.7,-0.3 2.5,-0.9 0.7,-0.6 1.1,-1.5 1.1,-2.6 0,-1 -0.3,-1.8 -1,-2.5 -0.9,-0.7 -1.7,-1 -2.7,-1"
   class="st1" />
</svg>