<?xml version="1.0" encoding="UTF-8" standalone="no"?>
<!-- Generator: Adobe Illustrator 20.0.0, SVG Export Plug-In . SVG Version: 6.00 Build 0)  -->

<svg
   xmlns:dc="http://purl.org/dc/elements/1.1/"
   xmlns:cc="http://creativecommons.org/ns#"
   xmlns:rdf="http://www.w3.org/1999/02/22-rdf-syntax-ns#"
   xmlns:svg="http://www.w3.org/2000/svg"
   xmlns="http://www.w3.org/2000/svg"
   xmlns:sodipodi="http://sodipodi.sourceforge.net/DTD/sodipodi-0.dtd"
   xmlns:inkscape="http://www.inkscape.org/namespaces/inkscape"
   version="1.1"
   id="Capa_1"
   x="0px"
   y="0px"
   viewBox="0 0 29.14315 47.504444"
   xml:space="preserve"
   inkscape:version="0.48.4 r9939"
   width="100%"
   height="100%"
   sodipodi:docname="user.svg"><metadata
   id="metadata17"><rdf:RDF><cc:Work
       rdf:about=""><dc:format>image/svg+xml</dc:format><dc:type
         rdf:resource="http://purl.org/dc/dcmitype/StillImage" /></cc:Work></rdf:RDF></metadata><defs
   id="defs15">
	
	
	
</defs><sodipodi:namedview
   pagecolor="#ffffff"
   bordercolor="#666666"
   borderopacity="1"
   objecttolerance="10"
   gridtolerance="10"
   guidetolerance="10"
   inkscape:pageopacity="0"
   inkscape:pageshadow="2"
   inkscape:window-width="640"
   inkscape:window-height="480"
   id="namedview13"
   showgrid="false"
   fit-margin-top="0"
   fit-margin-left="0"
   fit-margin-right="0"
   fit-margin-bottom="0"
   inkscape:zoom="0.28031833"
   inkscape:cx="13.593156"
   inkscape:cy="23.550012"
   inkscape:window-x="0"
   inkscape:window-y="0"
   inkscape:window-maximized="0"
   inkscape:current-layer="Capa_1" />
<style
   type="text/css"
   id="style3">
	.st0{fill:#585857;}
	.st1{fill:#5264AC;}
</style>
<path
   style="fill:#585857"
   inkscape:connector-curvature="0"
   id="path7"
   d="m 11.64315,3.5044246 c 0,1.9 1.6,3.5 3.5,3.5 1.9,0 3.5,-1.6 3.5,-3.5 0,-1.9 -1.6,-3.50000003 -3.5,-3.50000003 -1.9,-0.1 -3.5,1.50000003 -3.5,3.50000003 z"
   class="st0" /><path
   style="fill:#585857"
   inkscape:connector-curvature="0"
   id="path9"
   d="m 0.14315019,41.704425 c 0.7,-2.2 8.30000001,-13 8.30000001,-13 l 4.0999998,0 4.3,0 12.3,17.3 c 0,0 -4.1,0.6 -5.9,-0.9 -1.7,-1.5 -10.7,-15.5 -10.7,-15.5 l -11.0999998,17.9 c 0.1,0 -2.00000001,-3.6 -1.30000001,-5.8 z"
   class="st0" /><path
   style="fill:#5264ac"
   inkscape:connector-curvature="0"
   id="path11"
   d="m 27.74315,26.604425 c 0,-0.1 -11.9,-17.5000004 -14.5,-17.9000004 -2.6,-0.4 -10.3999998,6.4000004 -11.2999998,8.2000004 -0.9,1.8 -1.20000001,6.8 -1.00000001,8.1 0.10000001,1.2 3.60000001,3 3.60000001,3 l 0.2,-9 3.8,-3.2 v 11 l 8.3999998,0 v -9.1 c 0,0 5.3,7.7 6.6,8.6 1.2,0.8 4.2,0.3 4.2,0.3 z"
   class="st1" />
</svg>