<?xml version="1.0" encoding="UTF-8" standalone="no"?>
<!-- Generator: Adobe Illustrator 20.0.0, SVG Export Plug-In . SVG Version: 6.00 Build 0)  -->

<svg
   xmlns:dc="http://purl.org/dc/elements/1.1/"
   xmlns:cc="http://creativecommons.org/ns#"
   xmlns:rdf="http://www.w3.org/1999/02/22-rdf-syntax-ns#"
   xmlns:svg="http://www.w3.org/2000/svg"
   xmlns="http://www.w3.org/2000/svg"
   xmlns:sodipodi="http://sodipodi.sourceforge.net/DTD/sodipodi-0.dtd"
   xmlns:inkscape="http://www.inkscape.org/namespaces/inkscape"
   version="1.1"
   id="Capa_1"
   x="0px"
   y="0px"
   viewBox="0 0 42.840811 36.450115"
   xml:space="preserve"
   inkscape:version="0.48.4 r9939"
   width="100%"
   height="100%"
   sodipodi:docname="file.svg"><metadata
   id="metadata19"><rdf:RDF><cc:Work
       rdf:about=""><dc:format>image/svg+xml</dc:format><dc:type
         rdf:resource="http://purl.org/dc/dcmitype/StillImage" /></cc:Work></rdf:RDF></metadata><defs
   id="defs17">
	
	
	
	
</defs><sodipodi:namedview
   pagecolor="#ffffff"
   bordercolor="#666666"
   borderopacity="1"
   objecttolerance="10"
   gridtolerance="10"
   guidetolerance="10"
   inkscape:pageopacity="0"
   inkscape:pageshadow="2"
   inkscape:window-width="640"
   inkscape:window-height="480"
   id="namedview15"
   showgrid="false"
   inkscape:zoom="0.28031833"
   inkscape:cx="21.256764"
   inkscape:cy="18.484065"
   inkscape:window-x="0"
   inkscape:window-y="0"
   inkscape:window-maximized="0"
   inkscape:current-layer="Capa_1"
   fit-margin-top="0"
   fit-margin-left="0"
   fit-margin-right="0"
   fit-margin-bottom="0" />
<style
   type="text/css"
   id="style3">
	.st0{fill:#5264AC;}
	.st1{fill:#585857;}
</style>
<path
   style="fill:#5264ac"
   inkscape:connector-curvature="0"
   id="path7"
   d="m 4.1067583,28.416042 c -0.6,0 -1.2,-0.1 -1.7,-0.2 -1.4,-0.4 -2.29999997,-1.2 -2.39999997,-2.2 -0.2,-1.9 4.09999997,-20.0000002 4.79999997,-22.2000002 0.8,-2.5 3.4,-4.30000004 5.4999997,-3.70000004 2.2,0.6 3,3.80000004 3,5.50000004 0,1.5 -3.5999997,17.4000002 -3.9999997,19.2000002 l -1.3,-0.3 c 1.6,-7 3.9999997,-17.9000002 3.9999997,-18.9000002 0,-1.2 -0.7,-3.9 -2,-4.2 -1.4999997,-0.4 -3.3999997,1 -3.9999997,2.9 -0.7,2.3 -4.9,20.2000002 -4.8,21.7000002 0,0.4 0.6,0.9 1.5,1.1 1.2,0.3 2.4,0.2 2.9,-0.3 0.6,-0.8 1.9,-5.8 3.7,-14.9 0.1,-0.7 0.2,-1.2 0.3,-1.4 0.1,-0.6000002 0.2,-1.8000002 -1.1,-2.1000002 -1.4,-0.4 -2.1,0.7 -2.4,1.3 -0.4,1.0000002 -1.6,7.1000002 -2.4,10.7000002 -0.3,1.5 -0.5,2.6 -0.7,3.2 l -1.3,-0.3 c 0.1,-0.5 0.4,-1.7 0.7,-3.2 1.1,-5.2 2.1,-9.9 2.5,-10.9000002 0.7,-1.7 2.2,-2.5 3.9,-2.1 1.6999997,0.4 2.4999997,1.9 2.0999997,3.7000002 -0.1,0.2 -0.1,0.7 -0.3,1.4 -1.9999997,9.9 -3.1999997,14.5 -3.9999997,15.5 -0.5,0.4 -1.5,0.7 -2.5,0.7 z"
   class="st0" /><path
   style="fill:#585857"
   inkscape:connector-curvature="0"
   id="path9"
   d="m 41.206758,30.616042 -28.5,5.8 c -1.1,0.2 -2.2,-0.5 -2.4,-1.6 l -1.8999997,-9.4 0.8,0.2 0.9999997,0.2 0.2,-1 0.3,-1.1 c 1.3,-5.9 2.3,-10.2 2.9,-13.2 l 22.6,-4.6000002 c 1.1,-0.2 2.2,0.5 2.4,1.6 l 4.2,20.6000002 c 0.2,1.1 -0.5,2.2 -1.6,2.5 z m -5,-6.1 -21.4,4.4 0.3,1.3 21.4,-4.4 -0.3,-1.3 z m -0.8,-3.8 -21.4,4.4 0.3,1.3 21.4,-4.4 -0.3,-1.3 z m -0.8,-3.9 -21.4,4.4 0.3,1.3 21.4,-4.4 -0.3,-1.3 z m -0.8,-3.9 -21.4,4.4 0.3,1.3 21.4,-4.4 -0.3,-1.3 z"
   class="st1" /><path
   style="fill:#5264ac"
   inkscape:connector-curvature="0"
   id="path11"
   d="m 12.806758,4.4160418 c 0.3,0 0.6,0.3 0.6,1.1 0,1.5 -3.5999997,17.4000002 -3.9999997,19.2000002 l -1.3,-0.3 c 1.6,-7 3.9999997,-17.9000002 3.9999997,-18.9000002 0,-0.7 0.4,-1.1 0.7,-1.1"
   class="st0" /><path
   style="fill:#585857"
   inkscape:connector-curvature="0"
   id="path13"
   d="m 6.9067583,18.216042 1.5,-6.6 -0.7,0.1 c -1.1,0.2 -1.8,1.3 -1.6,2.4 l 0.8,4.1 z"
   class="st1" />
</svg>