<?xml version="1.0" encoding="UTF-8" standalone="no"?>
<!-- Generator: Adobe Illustrator 20.0.0, SVG Export Plug-In . SVG Version: 6.00 Build 0)  -->

<svg
   xmlns:dc="http://purl.org/dc/elements/1.1/"
   xmlns:cc="http://creativecommons.org/ns#"
   xmlns:rdf="http://www.w3.org/1999/02/22-rdf-syntax-ns#"
   xmlns:svg="http://www.w3.org/2000/svg"
   xmlns="http://www.w3.org/2000/svg"
   xmlns:sodipodi="http://sodipodi.sourceforge.net/DTD/sodipodi-0.dtd"
   xmlns:inkscape="http://www.inkscape.org/namespaces/inkscape"
   version="1.1"
   id="Capa_1"
   x="0px"
   y="0px"
   viewBox="0 0 39.899999 47.999999"
   xml:space="preserve"
   inkscape:version="0.48.4 r9939"
   width="100%"
   height="100%"
   sodipodi:docname="datastore_2.svg"><metadata
   id="metadata25"><rdf:RDF><cc:Work
       rdf:about=""><dc:format>image/svg+xml</dc:format><dc:type
         rdf:resource="http://purl.org/dc/dcmitype/StillImage" /></cc:Work></rdf:RDF></metadata><defs
   id="defs23">
	
	
	

		
		
			
		
		
	</defs><sodipodi:namedview
   pagecolor="#ffffff"
   bordercolor="#666666"
   borderopacity="1"
   objecttolerance="10"
   gridtolerance="10"
   guidetolerance="10"
   inkscape:pageopacity="0"
   inkscape:pageshadow="2"
   inkscape:window-width="640"
   inkscape:window-height="480"
   id="namedview21"
   showgrid="false"
   fit-margin-top="0"
   fit-margin-left="0"
   fit-margin-right="0"
   fit-margin-bottom="0"
   inkscape:zoom="0.28031833"
   inkscape:cx="19.850006"
   inkscape:cy="24.550012"
   inkscape:window-x="0"
   inkscape:window-y="0"
   inkscape:window-maximized="0"
   inkscape:current-layer="Capa_1" />
<style
   type="text/css"
   id="style3">
	.st0{fill:#5264AC;}
	.st1{fill:#585857;}
	.st2{fill:#FFFFFF;}
</style>
<path
   style="fill:#5264ac"
   inkscape:connector-curvature="0"
   id="path7"
   d="M 25.2,-2.0838898e-5 26.6,7.2999792 l 7.3,-1.4 -8.7,-5.900000038898 z"
   class="st0" /><polygon
   style="fill:#585857"
   id="polygon9"
   points="311.1,404.5 303.7,405.9 302.3,398.5 277.8,403 285.8,445.5 317.7,439.5 "
   class="st1"
   transform="translate(-277.8,-397.50002)" /><path
   class="st2"
   d="m 28.5,28.099979 c -1.9,0.8 -4.5,1.6 -7.4,2.1 -2.8,0.5 -5.5,0.8 -7.6,0.7 -1.4,-0.1 -2.4,-0.2 -3.1,-0.6 l 1.1,6 c 0.2,1.3 5.1,1.5 10.8,0.4 5.7,-1.1 10.2,-3 9.9,-4.3 l -1.1,-6 c -0.4,0.6 -1.3,1.2 -2.6,1.7 z"
   id="path13"
   inkscape:connector-curvature="0"
   style="fill:#ffffff" /><ellipse
   transform="matrix(0.9825,-0.1861,0.1861,0.9825,-349.6746,-335.10672)"
   class="st2"
   cx="296.39999"
   cy="414"
   rx="10.5"
   ry="2.4000001"
   id="ellipse15"
   sodipodi:cx="296.39999"
   sodipodi:cy="414"
   sodipodi:rx="10.5"
   sodipodi:ry="2.4000001"
   style="fill:#ffffff" /><path
   class="st2"
   d="m 26.5,17.499979 c -1.9,0.8 -4.5,1.6 -7.4,2.1 -2.8,0.5 -5.5,0.8 -7.6,0.7 -1.4,-0.1 -2.4,-0.2 -3.1,-0.6 l 1.1,6 c 0.2,1.3 5.1,1.5 10.8,0.4 5.7,-1.1 10.2,-3 9.9,-4.3 l -1.1,-6 c -0.5,0.6 -1.3,1.1 -2.6,1.7 z"
   id="path17"
   inkscape:connector-curvature="0"
   style="fill:#ffffff" /><path
   class="st2"
   d="m 29.1,24.199979 c -2.8,1.6 -7.8,2.6 -8.6,2.7 -0.8,0.1 -5.8,1 -9,0.6 -0.9,0.6 -1.4,1.1 -1.3,1.6 0.2,1.3 5.1,1.5 10.8,0.4 5.7,-1.1 10.2,-3 9.9,-4.3 -0.1,-0.5 -0.7,-0.8 -1.8,-1 z"
   id="path19"
   inkscape:connector-curvature="0"
   style="fill:#ffffff" />
</svg>