<svg xmlns="http://www.w3.org/2000/svg" width="437.199" height="223.287"><g fill="#e8ebf5"><path d="M367.953 139.332c3.872-.61 7.21-2.91 9.175-6.298 3.5-6.17 1.357-14-4.77-17.464-2.497-1.428-5.462-1.96-8.306-1.53a12.89 12.89 0 0 0-9.176 6.29c-1.72 2.97-2.15 6.404-1.244 9.718a12.557 12.557 0 0 0 6.042 7.722c2.47 1.43 5.416 1.985 8.28 1.562zm36.685-3.176c-3.61 0-7.006 1.64-9.26 4.472-4.088 5.106-3.21 12.54 1.88 16.59a11.898 11.898 0 0 0 7.38 2.566c3.63 0 7.024-1.64 9.28-4.472 4.058-5.08 3.207-12.514-1.88-16.563a11.942 11.942 0 0 0-7.4-2.595zM278.25 184.338c4.378 0 8.437-1.958 11.14-5.345 4.855-6.112 3.817-15.028-2.31-19.87a14.294 14.294 0 0 0-8.8-3.043c-4.38 0-8.41 1.93-11.114 5.32a14.11 14.11 0 0 0-3.002 10.423c.43 3.73 2.31 7.118 5.285 9.446a14.176 14.176 0 0 0 8.8 3.067zm110.047 33.71c4.35 0 8.41-1.96 11.112-5.346 2.327-2.937 3.42-6.668 2.973-10.425-.43-3.73-2.31-7.09-5.257-9.446a14.32 14.32 0 0 0-8.83-3.067c-4.378 0-8.437 1.932-11.112 5.318-4.883 6.113-3.873 15.057 2.282 19.898a14.193 14.193 0 0 0 8.83 3.07zm-84.69-63.028c5.97 0 11.516-2.67 15.2-7.3 3.21-4.05 4.67-9.076 4.06-14.236-.59-5.107-3.133-9.68-7.192-12.855-3.396-2.71-7.69-4.184-12.01-4.184-5.95 0-11.487 2.642-15.172 7.272-3.237 4.05-4.668 9.076-4.088 14.183.58 5.134 3.152 9.71 7.184 12.91a19.41 19.41 0 0 0 12.017 4.21zm29.68 52.047c4.565 0 8.774-2.012 11.59-5.557 2.497-3.123 3.58-6.96 3.133-10.9-.458-3.917-2.394-7.41-5.49-9.844-2.6-2.037-5.865-3.2-9.204-3.2-4.537 0-8.783 2.036-11.59 5.58-5.07 6.378-4.012 15.665 2.386 20.72 2.572 2.063 5.855 3.2 9.176 3.2zm-.055-122.58a17.663 17.663 0 0 0 13.9-6.703 17.544 17.544 0 0 0 3.74-13.012c-.56-4.686-2.89-8.868-6.603-11.8-3.108-2.49-7.036-3.835-11.01-3.835-5.464 0-10.534 2.427-13.93 6.664-6.07 7.62-4.8 18.765 2.873 24.85 3.124 2.456 7.024 3.837 11.028 3.837zm-137.734 45.897c5.444 0 10.532-2.427 13.9-6.665a17.425 17.425 0 0 0 3.74-13.04c-.532-4.688-2.86-8.87-6.574-11.8-3.134-2.465-7.062-3.837-11.038-3.837-5.462 0-10.532 2.427-13.927 6.664-6.045 7.617-4.773 18.763 2.87 24.84 3.15 2.464 7.052 3.836 11.027 3.836zm32.57-32.96a14.12 14.12 0 0 0 12.655-7.384c3.63-6.85 1.057-15.346-5.677-18.977a14.224 14.224 0 0 0-6.473-1.717c-5.304-.075-10.158 2.725-12.674 7.355-3.64 6.938-1.04 15.43 5.75 19.054a14.474 14.474 0 0 0 6.417 1.67zm27.135 62.52c4.985 0 9.625-2.223 12.73-6.113 2.704-3.36 3.9-7.59 3.424-11.905a16.035 16.035 0 0 0-6.052-10.793c-2.834-2.277-6.445-3.518-10.102-3.518-4.986 0-9.597 2.22-12.702 6.137a15.946 15.946 0 0 0-3.394 11.88c.505 4.31 2.63 8.15 6.043 10.82 2.842 2.277 6.425 3.494 10.054 3.494zM314.3 29.29c0 6.926-5.65 12.564-12.628 12.564-6.95 0-12.6-5.638-12.6-12.564 0-6.936 5.65-12.574 12.6-12.574 6.978 0 12.628 5.638 12.628 12.574zm-87.345 193.993c5.462 0 10.532-2.434 13.927-6.694 2.947-3.675 4.266-8.306 3.742-13.015a17.58 17.58 0 0 0-6.604-11.8c-3.105-2.488-7.034-3.838-11.037-3.838a17.743 17.743 0 0 0-13.9 6.668c-6.07 7.62-4.798 18.76 2.862 24.845 3.134 2.46 7.034 3.835 11.01 3.835zm33.13-175.717c3.63 0 6.997-1.614 9.28-4.443 4.06-5.106 3.19-12.564-1.937-16.615a11.9 11.9 0 0 0-7.342-2.567c-3.667 0-7.034 1.643-9.307 4.5-4.034 5.077-3.19 12.517 1.934 16.558 2.067 1.673 4.686 2.57 7.37 2.57zm126.435 59.19c3.9-.606 7.21-2.912 9.176-6.29 3.498-6.17 1.356-14.003-4.77-17.466-2.498-1.428-5.445-1.96-8.307-1.54a12.902 12.902 0 0 0-9.178 6.3c-1.72 2.97-2.15 6.404-1.244 9.71a12.54 12.54 0 0 0 6.042 7.727 12.867 12.867 0 0 0 8.278 1.557zm-110.206-3.2c3.817 0 7.37-1.69 9.737-4.678 4.24-5.293 3.34-13.078-1.99-17.306-2.2-1.746-4.93-2.726-7.717-2.726-3.816 0-7.37 1.69-9.737 4.686-4.237 5.31-3.34 13.115 2.02 17.353a12.447 12.447 0 0 0 7.69 2.67z"/><path d="M182.693 223.285H74.9C34.985 223.285 0 188.28 0 148.38c0-33.36 19.388-62.046 48.35-71.52 15.28-26.482 41.908-42.276 71.3-42.276 4.395 0 8.614.336 12.907 1.083C151.18 12.967 177.25 0 204.28 0c2.125 0 10.955.26 15.173 1.587 7.137 2.193 11.187 9.866 9.064 17.09-1.693 5.798-7.025 9.85-12.964 9.85-1.198 0-2.386-.16-3.555-.477-.402-.056-4.452-.504-7.717-.504-21.324 0-41.397 11.425-55.11 31.373-2.497 3.6-6.82 5.85-11.3 5.85-1.224 0-2.394-.186-3.507-.503-5.19-1.484-9.728-2.147-14.713-2.147-21.28 0-40 12.2-50.08 32.653a13.536 13.536 0 0 1-9.204 7.28c-19.6 4.34-33.286 23.384-33.286 46.328 0 24.793 22.783 47.363 47.82 47.363h107.793c7.474 0 13.553 6.19 13.553 13.785 0 7.567-6.08 13.758-13.553 13.758zm177.43-29.343c2.92 2.302 7.222 1.826 9.523-1.084 2.338-2.91 1.833-7.17-1.086-9.5-2.918-2.3-7.183-1.825-9.522 1.085-2.33 2.938-1.824 7.197 1.085 9.5zm-68.29 21.432c0 3.837-3.134 6.96-6.98 6.96-3.87 0-6.995-3.123-6.995-6.96 0-3.836 3.124-6.96 6.996-6.96 3.845 0 6.978 3.124 6.978 6.96zm128.93-84.3c3.02 0 5.828-1.372 7.717-3.724 1.62-2.016 2.33-4.583 2.04-7.197-.29-2.595-1.563-4.9-3.63-6.543-1.758-1.372-3.928-2.138-6.126-2.138a9.885 9.885 0 0 0-7.727 3.678c-3.367 4.23-2.647 10.427 1.572 13.787a9.99 9.99 0 0 0 6.153 2.138zM426.676 175c3.05 0 5.865-1.35 7.745-3.73 1.59-1.986 2.33-4.552 2.04-7.17-.29-2.594-1.59-4.922-3.63-6.563a10 10 0 0 0-6.155-2.143 9.802 9.802 0 0 0-7.69 3.704c-3.375 4.234-2.655 10.398 1.563 13.76 1.75 1.375 3.93 2.142 6.127 2.142zm-71.295 48.287a9.774 9.774 0 0 0 7.718-3.73 9.68 9.68 0 0 0 2.067-7.17c-.29-2.62-1.618-4.95-3.657-6.59-1.75-1.35-3.93-2.116-6.127-2.116a9.827 9.827 0 0 0-7.715 3.703c-3.32 4.233-2.628 10.37 1.562 13.732a9.818 9.818 0 0 0 6.155 2.17zm-60.602-137.67c3.125 2.465 7.614 1.933 10.046-1.157 2.47-3.07 1.965-7.486-1.188-9.978-3.05-2.437-7.51-1.933-10 1.167-2.468 3.07-1.907 7.542 1.142 9.97zm-47.508-69.82a7.14 7.14 0 0 0 10.056-1.14c2.442-3.07 1.936-7.486-1.197-9.97-3.05-2.435-7.53-1.93-10.03 1.13-2.43 3.1-1.88 7.543 1.17 9.98zm5.997 94.035a8.522 8.522 0 0 0 6.098-4.182c1.113-1.96 1.413-4.23.795-6.404a8.23 8.23 0 0 0-3.975-5.134 8.583 8.583 0 0 0-5.49-1 8.436 8.436 0 0 0-6.07 4.155c-2.312 4.042-.908 9.204 3.15 11.538a8.47 8.47 0 0 0 5.492 1.026zm-29.81 33.073a6.17 6.17 0 0 0 8.67-1.005c2.124-2.646 1.703-6.535-.98-8.652-2.677-2.115-6.55-1.667-8.7 1.005a6.143 6.143 0 0 0 1.01 8.654z"/><path d="M199.268 185.476c2.946 2.328 7.21 1.826 9.522-1.112a6.71 6.71 0 0 0-1.085-9.472c-2.92-2.328-7.22-1.825-9.522 1.085-2.34 2.937-1.834 7.17 1.085 9.5zm177.804-34.423c2.947 2.328 7.22 1.825 9.522-1.085 2.34-2.91 1.834-7.17-1.085-9.5-2.92-2.327-7.213-1.824-9.524 1.086a6.76 6.76 0 0 0 1.085 9.5zm-82.668 49.927a6.773 6.773 0 0 0 9.522-1.11c2.33-2.91 1.834-7.145-1.085-9.473-2.944-2.328-7.22-1.826-9.52 1.085-2.34 2.91-1.833 7.17 1.085 9.498zm35.722-32.438c2.947 2.302 7.22 1.826 9.522-1.112a6.69 6.69 0 0 0-1.085-9.47c-2.918-2.303-7.183-1.827-9.522 1.083-2.327 2.91-1.822 7.17 1.087 9.5zm53.662 13.918c4.902 3.89 12.067 3.068 15.967-1.826 3.92-4.922 3.106-12.04-1.833-15.928-4.902-3.89-12.066-3.096-15.995 1.826-3.9 4.894-3.077 12.038 1.86 15.927zm41.4-34.82c3.208 2.54 7.848 1.984 10.4-1.192 2.545-3.174 2.012-7.83-1.168-10.345-3.208-2.54-7.876-2.01-10.4 1.165a7.38 7.38 0 0 0 1.168 10.372zM278.063 44.525a4.37 4.37 0 0 0 6.183-.68c1.515-1.887 1.197-4.63-.72-6.143-1.88-1.503-4.668-1.186-6.174.72-1.487 1.875-1.17 4.63.71 6.103zm81.35 59.638c1.908 1.513 4.667 1.195 6.154-.68 1.506-1.905 1.188-4.63-.692-6.17-1.908-1.476-4.667-1.16-6.183.718-1.506 1.878-1.188 4.63.72 6.134zM252.92 83.506a4.407 4.407 0 0 0 6.183-.72c1.488-1.875 1.17-4.628-.72-6.13-1.908-1.486-4.667-1.168-6.155.708-1.506 1.876-1.188 4.63.693 6.142zm152.485 23.598a4.85 4.85 0 0 0 6.79-.794c1.637-2.063 1.3-5.106-.776-6.75-2.097-1.632-5.146-1.296-6.783.767a4.85 4.85 0 0 0 .767 6.777zM233.24 61.31a9.77 9.77 0 0 0 7.698-3.707c3.368-4.238 2.648-10.4-1.57-13.76-1.722-1.353-3.9-2.146-6.128-2.146a9.78 9.78 0 0 0-7.688 3.706c-3.396 4.256-2.676 10.426 1.534 13.787a10.115 10.115 0 0 0 6.154 2.12zm106.838 90.087c2.994 0 5.81-1.35 7.69-3.704 3.338-4.234 2.656-10.4-1.563-13.76a9.908 9.908 0 0 0-6.155-2.142 9.772 9.772 0 0 0-7.688 3.705c-1.647 2.064-2.395 4.63-2.068 7.25.318 2.62 1.61 4.95 3.705 6.563 1.672 1.322 3.85 2.09 6.077 2.09zm-110.392-25.904l.767-.215c2.47-.71 4.518-2.352 5.79-4.63 1.244-2.268 1.506-4.89.795-7.374-1.515-4.714-6.024-7.514-10.794-6.805l-.505.082-.825.205c-5.117 1.587-8.007 6.964-6.5 12.042 1.383 4.573 5.994 7.485 10.765 6.776l.506-.084zm79.572 55.405c3.05 0 5.865-1.35 7.717-3.704 1.646-2.09 2.385-4.657 2.067-7.276a9.684 9.684 0 0 0-3.685-6.51c-1.693-1.35-3.873-2.09-6.1-2.09-3.002 0-5.808 1.324-7.688 3.678-3.378 4.286-2.658 10.452 1.616 13.812 1.693 1.35 3.873 2.09 6.07 2.09zm-79.806-4.974a9.825 9.825 0 0 0 7.717-3.73 9.58 9.58 0 0 0 2.037-7.198c-.29-2.592-1.59-4.894-3.63-6.535a9.88 9.88 0 0 0-6.126-2.14c-3.03 0-5.836 1.35-7.697 3.704a9.712 9.712 0 0 0-2.095 7.197 9.75 9.75 0 0 0 3.665 6.59 10.033 10.033 0 0 0 6.127 2.115zm69.545-127.982c-3.03 0-5.837 1.353-7.698 3.706-1.648 2.063-2.387 4.63-2.07 7.224.32 2.595 1.59 4.92 3.658 6.535a9.862 9.862 0 0 0 6.107 2.12c3.02 0 5.855-1.355 7.717-3.707a9.693 9.693 0 0 0 2.067-7.17 9.778 9.778 0 0 0-3.657-6.59 9.99 9.99 0 0 0-6.127-2.118zm-91.563-1.502a9.823 9.823 0 0 0-7.717 3.695c-1.647 2.063-2.357 4.63-2.067 7.253a9.73 9.73 0 0 0 3.685 6.534 9.886 9.886 0 0 0 6.1 2.12 9.774 9.774 0 0 0 7.715-3.734 9.52 9.52 0 0 0 2.05-7.14c-.272-2.624-1.573-4.95-3.64-6.59a9.855 9.855 0 0 0-6.126-2.14zm186.353 66.06c-4.723 0-8.54 3.518-8.7 8.204-.214 4.714 3.528 8.84 8.298 8.84 5.07 0 8.886-3.49 9.073-8.177.103-2.222-.72-4.415-2.282-6.142-1.562-1.69-3.76-2.67-6.1-2.745l-.29.02zM237.113 34.155c2.385.85 5.07-.346 5.837-2.773.85-2.38-.347-5.03-2.732-5.9a4.57 4.57 0 0 0-5.91 2.8c-.91 2.382.345 4.977 2.805 5.873zm-51.773 137.06c1.702.608 3.64-.265 4.19-2.012a3.332 3.332 0 0 0-1.964-4.233c-1.777-.635-3.657.317-4.237 2.01-.666 1.72.232 3.6 2.01 4.235zm84.79-99.275a9.94 9.94 0 0 0 6.586-2.482c1.824-1.596 3.05-3.977 3.237-6.59.178-2.595-.664-5.19-2.395-7.15-1.908-2.166-4.583-3.38-7.427-3.38a9.808 9.808 0 0 0-6.46 2.427c-4.06 3.575-4.49 9.764-.936 13.843a9.873 9.873 0 0 0 7.398 3.333zm-17.415-10.93c1.085 1.25.973 3.174-.328 4.266-1.216 1.14-3.152 1-4.265-.243-1.085-1.24-.982-3.2.262-4.284 1.272-1.113 3.19-.98 4.33.26zm101.02 27.443c1.113 1.242 1.01 3.174-.29 4.257-1.244 1.11-3.152 1.008-4.293-.26-1.067-1.243-.983-3.175.29-4.286a3.052 3.052 0 0 1 4.293.29zm-59.07 16.345c1.114 1.28 1.01 3.183-.29 4.294-1.215 1.11-3.15 1-4.264-.27-1.092-1.242-.98-3.174.264-4.285 1.244-1.083 3.18-.98 4.293.26zm16.342 3.922c3.742 0 7.212-2.148 8.858-5.51a9.75 9.75 0 0 0 .42-7.532 9.885 9.885 0 0 0-5.087-5.61c-1.273-.616-2.732-.933-4.19-.933a9.87 9.87 0 0 0-8.887 5.61c-1.11 2.25-1.27 4.9-.39 7.41.84 2.466 2.674 4.5 5.06 5.64 1.244.606 2.73.924 4.22.924zm-61.847 78.978c1.88 0 3.658-.846 4.827-2.33 1.03-1.295 1.506-2.882 1.32-4.523-.207-1.64-1.03-3.12-2.33-4.128a6.21 6.21 0 0 0-3.817-1.322c-1.89 0-3.638.846-4.835 2.33a6.06 6.06 0 0 0-1.29 4.523c.176 1.64 1 3.095 2.3 4.1a6.11 6.11 0 0 0 3.825 1.35zM201.363 84.14a6.19 6.19 0 0 0 4.826-2.305 6.104 6.104 0 0 0 1.3-4.546c-.188-1.644-1.01-3.1-2.31-4.137a6.265 6.265 0 0 0-3.818-1.297c-1.88 0-3.657.85-4.827 2.305-1.038 1.3-1.515 2.914-1.3 4.557.187 1.614 1.01 3.06 2.283 4.097a6.283 6.283 0 0 0 3.843 1.326zm137.947 38.786c4.35 0 8.4-1.96 11.114-5.368 4.873-6.086 3.844-15-2.255-19.845a14.32 14.32 0 0 0-8.84-3.07c-4.37 0-8.43 1.96-11.14 5.348-2.358 2.933-3.415 6.64-2.994 10.4.42 3.725 2.31 7.113 5.303 9.466a14.293 14.293 0 0 0 8.81 3.07zm-133.177 40.616c3.873-.583 7.22-2.91 9.176-6.298 3.506-6.165 1.355-13.97-4.77-17.463-2.518-1.4-5.465-1.956-8.308-1.506-3.873.582-7.212 2.884-9.176 6.27-1.72 2.964-2.142 6.43-1.244 9.738.907 3.308 3.05 6.033 6.052 7.726 2.46 1.403 5.406 1.985 8.268 1.536zm41.802-41.755a2.887 2.887 0 0 0 4.088-.448 2.88 2.88 0 0 0-.45-4.1c-1.28-.98-3.105-.765-4.087.476-1.01 1.27-.795 3.118.45 4.07zm161.127 51.57c1.272 1.03 3.077.794 4.088-.45a2.926 2.926 0 0 0-.45-4.1 2.927 2.927 0 0 0-4.115.475 2.874 2.874 0 0 0 .477 4.076zm-48.508.768c3.526 0 6.79-1.56 8.99-4.286 3.927-4.977 3.104-12.147-1.835-16.063a11.632 11.632 0 0 0-7.13-2.46c-3.526 0-6.79 1.56-8.997 4.312-3.892 4.894-3.068 12.09 1.86 16.007a11.514 11.514 0 0 0 7.11 2.487zm-96.334 32.412c4.246 3.334 10.4 2.593 13.797-1.588 3.31-4.26 2.647-10.4-1.572-13.733-4.265-3.36-10.448-2.7-13.815 1.56-3.34 4.207-2.63 10.346 1.59 13.76zm67.683 15.903a4.016 4.016 0 0 0 5.603-.663c1.347-1.72 1.085-4.207-.636-5.556-1.73-1.374-4.246-1.083-5.603.637-1.347 1.72-1.085 4.207.636 5.583zm-153.11-81.892a4.022 4.022 0 0 0 5.593-.635c1.356-1.746 1.085-4.233-.636-5.583-1.72-1.348-4.247-1.084-5.594.636a3.98 3.98 0 0 0 .636 5.582zm141.157-95.91c2.113 1.69 5.247 1.344 6.95-.794 1.664-2.12 1.318-5.246-.805-6.908-2.142-1.717-5.248-1.353-6.97.766a4.898 4.898 0 0 0 .824 6.935zM179.485 85.01c2.114 1.67 5.247 1.325 6.94-.794a4.905 4.905 0 0 0-.795-6.908c-2.142-1.717-5.247-1.344-6.95.775a4.915 4.915 0 0 0 .805 6.926zm191.78-8.122c0 4.686-3.818 8.494-8.513 8.494-4.724 0-8.54-3.808-8.54-8.494s3.816-8.494 8.54-8.494c4.695 0 8.512 3.808 8.512 8.494zm-204.408 27.117c0 4.686-3.816 8.494-8.512 8.494-4.695 0-8.52-3.81-8.52-8.496 0-4.677 3.825-8.485 8.52-8.485 4.696 0 8.512 3.807 8.512 8.484zm256.526 83.8c0 4.682-3.817 8.492-8.54 8.492-4.696 0-8.512-3.81-8.512-8.493s3.818-8.494 8.514-8.494c4.723 0 8.54 3.81 8.54 8.494zm-101.05 26.987c0 4.683-3.796 8.493-8.51 8.493-4.696 0-8.522-3.81-8.522-8.493s3.828-8.493 8.524-8.493c4.714 0 8.51 3.81 8.51 8.49zM283.03 117.24c0 4.705-3.825 8.495-8.52 8.495-4.715 0-8.54-3.79-8.54-8.494 0-4.684 3.825-8.464 8.54-8.464 4.695 0 8.52 3.78 8.52 8.466zm-29.894 103.85a5.79 5.79 0 0 0 8.137-.953c1.993-2.487 1.572-6.113-.926-8.096-2.516-1.957-6.154-1.534-8.137.928a5.774 5.774 0 0 0 .926 8.122zm-84.268-55.406c3.03 0 5.837-1.35 7.717-3.704 1.618-2.09 2.366-4.657 2.048-7.276-.318-2.593-1.618-4.895-3.685-6.535-1.674-1.325-3.872-2.066-6.08-2.066-3.02 0-5.808 1.323-7.69 3.678a9.812 9.812 0 0 0 1.592 13.81c1.702 1.35 3.872 2.09 6.098 2.09zM284.695 15c0 4.686-3.816 8.467-8.512 8.467-4.695 0-8.512-3.78-8.512-8.467 0-4.704 3.82-8.494 8.514-8.494 4.696 0 8.512 3.79 8.512 8.494z"/></g></svg>